<svg xmlns:inkscape="http://www.inkscape.org/namespaces/inkscape" xmlns:sodipodi="http://sodipodi.sourceforge.net/DTD/sodipodi-0.dtd" xmlns="http://www.w3.org/2000/svg" xmlns:svg="http://www.w3.org/2000/svg" version="1.1" id="svg2" sodipodi:docname="LOGO FRIGORINOQUIA OK.ai" viewBox="134.75 393.7 536 195.82">
  <defs id="defs6" fill="#ffffff">
    <clipPath clipPathUnits="userSpaceOnUse" id="clipPath16" fill="#ffffff">
      <path d="M 0,793.701 H 623.622 V 0 H 0 Z" id="path14" fill="#ffffff"/>
    </clipPath>
  </defs>
  <sodipodi:namedview id="namedview4" pagecolor="#ffffff" bordercolor="#ffffff" borderopacity="0.25" inkscape:showpageshadow="2" inkscape:pageopacity="0.0" inkscape:pagecheckerboard="0" inkscape:deskcolor="#ffffff" fill="#ffffff"/>
  <g id="g8" inkscape:groupmode="layer" inkscape:label="LOGO FRIGORINOQUIA OK" transform="matrix(1.3333333,0,0,-1.3333333,0,1058.268)">
    <g id="g10">
      <g id="g12" clip-path="url(#clipPath16)">
        <g id="g18" transform="translate(460.9009,353.9666)">
          <path d="m 0,0 -22.277,2.102 c -104.35,8.943 -215.082,7.521 -317.472,-4.508 88.619,7.983 181.519,10.387 271.834,6.11 C -37.73,2.28 -7.706,0.226 22.065,-2.406 14.729,-1.585 7.375,-0.78 0,0" style="fill:#ffffff;fill-opacity:1;fill-rule:nonzero;stroke:none" id="path20"/>
        </g>
        <g id="g22" transform="translate(330.1232,370.6865)">
          <path d="M 0,0 C -0.032,0 -0.061,0.026 -0.061,0.058 V 3.12 L 0.216,3.229 C 0.269,3.311 0.493,3.766 0.028,5.197 l -6.486,19.902 c -0.022,0.064 -0.114,0.05 -0.114,-0.017 V 6.449 h 0.004 c 0,-2.603 0.944,-3.222 0.951,-3.227 L -5.365,3.065 -5.347,2.76 V 0.058 C -5.347,0.026 -5.376,0 -5.408,0 h -12.177 c -0.033,0 -0.061,0.026 -0.061,0.058 v 3.021 l 0.284,0.151 c 0,0 0.936,0.621 0.936,3.219 h 0.004 l -0.004,45.621 c 0,2.605 -0.943,3.222 -0.95,3.229 l -0.252,0.156 -0.018,0.306 v 2.7 c 0,0.032 0.028,0.06 0.061,0.06 h 12.177 c 0.032,0 0.061,-0.028 0.061,-0.06 v -3.048 l -0.259,-0.114 c -0.05,-0.074 -0.249,-0.475 0.085,-1.657 L 1.05,33.474 c 0.022,-0.064 0.114,-0.05 0.114,0.017 V 52.07 H 1.16 c 0,2.605 -0.944,3.222 -0.951,3.229 l -0.252,0.156 -0.018,0.306 v 2.7 c 0,0.032 0.029,0.06 0.061,0.06 h 12.178 c 0.032,0 0.06,-0.028 0.06,-0.06 v -3.019 l -0.284,-0.154 c 0,0 -0.937,-0.621 -0.937,-3.218 L 11.014,6.449 h 0.003 c 0,-2.603 0.944,-3.222 0.952,-3.227 L 12.22,3.065 12.238,2.76 V 0.058 C 12.238,0.026 12.21,0 12.178,0 Z" style="fill:#ffffff;fill-opacity:1;fill-rule:nonzero;stroke:none" id="path24"/>
        </g>
        <g id="g26" transform="translate(386.7502,370.6826)">
          <path d="m 0,0 h -1.941 c -5.298,0 -9.606,4.308 -9.606,9.603 v 39.319 c 0,5.295 4.308,9.602 9.606,9.602 h 8.235 c 5.298,0 9.602,-4.307 9.602,-9.602 V 9.603 C 15.896,7.63 15.314,5.761 14.2,4.156 l 2.58,-1.051 v -9.943 z m 0.103,48.666 c -0.987,0 -1.789,-0.803 -1.789,-1.789 V 11.648 c 0,-0.986 0.802,-1.79 1.789,-1.79 h 4.148 c 0.986,0 1.788,0.804 1.788,1.79 v 35.229 c 0,0.986 -0.802,1.789 -1.788,1.789 z" style="fill:#ffffff;fill-opacity:1;fill-rule:nonzero;stroke:none" id="path28"/>
        </g>
        <g id="g30" transform="translate(407.2382,370.6709)">
          <path d="m 0,0 v 3.145 l 0.287,0.15 c -0.003,0 0.195,0.129 0.408,0.497 0.238,0.441 0.533,1.28 0.533,2.711 V 52.085 L 1.22,52.086 c 0,2.604 -0.943,3.222 -0.951,3.229 L 0.018,55.47 0,55.776 v 2.76 h 12.298 v -3.08 l -0.284,-0.15 c 0,0 -0.936,-0.621 -0.936,-3.22 V 9.883 c 4.311,0.276 7.735,3.871 7.735,8.251 v 33.951 l -0.003,10e-4 c 0,2.604 -0.941,3.222 -0.951,3.229 l -0.253,0.155 -0.013,0.306 v 2.76 H 29.887 V 55.461 L 29.611,55.31 c 0.003,0 -0.88,-0.6 -0.93,-3.013 V 19.279 C 28.681,8.649 20.03,0 9.399,0 Z" style="fill:#ffffff;fill-opacity:1;fill-rule:nonzero;stroke:none" id="path32"/>
        </g>
        <g id="g34" transform="translate(129.2545,424.7303)">
          <path d="m 0,0 -0.064,7.518 101.833,-0.1 c 41.704,-0.095 34.819,41.498 10.675,43.533 8.805,-7.219 18.467,-18.111 5.458,-28.403 -7.36,-3.836 -13.952,-4.573 -41.538,-3.818 l -88.644,-0.244 -0.436,-72.38 12.232,0.109 0.571,34.215 17.164,0.065 0.044,11.309 -17.127,-0.007 z" style="fill:#ffffff;fill-opacity:1;fill-rule:evenodd;stroke:none" id="path36"/>
        </g>
        <g id="g38" transform="translate(184.8357,370.6826)">
          <path d="M 0,0 C -0.032,0 -0.06,0.026 -0.06,0.058 V 3.079 L 0.224,3.23 c -0.004,0 0.937,0.62 0.937,3.219 v 45.625 c 0,2.604 -0.944,3.222 -0.951,3.229 l -0.252,0.156 -0.018,0.305 v 2.7 c 0,0.032 0.028,0.06 0.06,0.06 h 12.178 c 0.032,0 0.057,-0.028 0.057,-0.06 v -3.019 l -0.28,-0.153 c 0,0 -0.937,-0.621 -0.937,-3.218 V 6.449 c 0,-2.603 0.94,-3.222 0.951,-3.228 L 12.221,3.065 12.235,2.76 V 0.058 C 12.235,0.026 12.21,0 12.178,0 Z" style="fill:#ffffff;fill-opacity:1;fill-rule:nonzero;stroke:none" id="path40"/>
        </g>
        <g id="g42" transform="translate(218.5349,370.6743)">
          <path d="m 0,0 c -10.496,0 -19.033,8.541 -19.033,19.033 v 30.15 c 0,5.156 4.194,9.35 9.35,9.35 H 8.421 v -11.5 l -9.869,-5.354 v 6.986 h -6.5 c -0.671,0 -1.217,-0.546 -1.217,-1.217 V 17.94 c 0,-4.336 3.431,-7.88 7.717,-8.065 v 14.467 h -6.039 l 5.355,9.832 10.553,0.018 V 0 Z" style="fill:#ffffff;fill-opacity:1;fill-rule:nonzero;stroke:none" id="path44"/>
        </g>
        <g id="g46" transform="translate(169.0584,370.6699)">
          <path d="m 0,0 v 3.081 l 0.284,0.15 C 0.291,3.238 0.869,3.63 0.455,5.122 l 0.003,0.002 -3.502,12.58 -4.745,-4.745 V 6.436 c 0.008,-2.58 0.945,-3.196 0.952,-3.202 l 0.252,-0.156 0.014,-0.305 v -2.76 h -12.295 v 3.08 l 0.284,0.151 c -0.004,0 0.937,0.621 0.937,3.219 v 45.624 c 0,2.604 -0.945,3.222 -0.955,3.229 l -0.249,0.156 -0.017,0.305 v 2.76 H 0.621 c 5.06,0 9.176,-4.116 9.176,-9.176 V 34.322 c 0,-2.436 -0.947,-4.726 -2.672,-6.449 L 4.961,25.707 10.677,5.17 C 11.071,3.829 12.001,3.239 12.04,3.215 L 12.292,3.059 12.295,2.76 V 0 Z m -7.789,26.901 7.729,7.726 v 11.997 c 0,1.133 -0.923,2.055 -2.055,2.055 h -5.674 z" style="fill:#ffffff;fill-opacity:1;fill-rule:nonzero;stroke:none" id="path48"/>
        </g>
        <g id="g50" transform="translate(240.5478,370.6826)">
          <path d="m 0,0 c -5.298,0 -9.606,4.308 -9.606,9.603 v 39.318 c 0,5.295 4.308,9.603 9.606,9.603 h 8.235 c 5.294,0 9.603,-4.308 9.603,-9.603 V 9.603 C 17.838,4.308 13.529,0 8.235,0 Z m 2.044,48.666 c -0.987,0 -1.788,-0.803 -1.788,-1.789 V 11.648 c 0,-0.986 0.801,-1.79 1.788,-1.79 h 4.148 c 0.986,0 1.788,0.804 1.788,1.79 v 35.229 c 0,0.986 -0.802,1.789 -1.788,1.789 z" style="fill:#ffffff;fill-opacity:1;fill-rule:nonzero;stroke:none" id="path52"/>
        </g>
        <g id="g54" transform="translate(295.9515,370.6826)">
          <path d="M 0,0 C -0.032,0 -0.06,0.026 -0.06,0.058 V 3.079 L 0.223,3.23 C 0.22,3.23 1.16,3.85 1.16,6.449 v 45.625 c 0,2.604 -0.944,3.222 -0.951,3.229 l -0.252,0.156 -0.017,0.305 v 2.7 c 0,0.032 0.028,0.06 0.06,0.06 h 12.178 c 0.032,0 0.056,-0.028 0.056,-0.06 v -3.019 l -0.28,-0.153 c 0,0 -0.937,-0.621 -0.937,-3.218 V 6.449 c 0,-2.603 0.941,-3.222 0.951,-3.228 L 12.22,3.065 12.234,2.76 V 0.058 C 12.234,0.026 12.21,0 12.178,0 Z" style="fill:#ffffff;fill-opacity:1;fill-rule:nonzero;stroke:none" id="path56"/>
        </g>
        <g id="g58" transform="translate(280.1743,370.6699)">
          <path d="m 0,0 v 3.081 l 0.284,0.15 C 0.29,3.238 0.869,3.63 0.454,5.122 l 0.003,0.002 -3.502,12.58 -4.744,-4.745 V 6.436 c 0.007,-2.58 0.944,-3.196 0.951,-3.202 l 0.252,-0.156 0.014,-0.305 v -2.76 h -12.295 v 3.08 l 0.284,0.151 c -0.003,0 0.937,0.621 0.937,3.219 v 45.624 c 0,2.604 -0.944,3.222 -0.955,3.229 l -0.248,0.156 -0.018,0.305 v 2.76 H 0.621 c 5.06,0 9.176,-4.116 9.176,-9.176 V 34.322 c 0,-2.436 -0.948,-4.726 -2.672,-6.449 L 4.96,25.707 10.677,5.17 C 11.07,3.829 12,3.239 12.039,3.215 L 12.291,3.059 12.295,2.76 V 0 Z m -7.789,26.901 7.728,7.726 v 11.997 c 0,1.133 -0.922,2.055 -2.054,2.055 h -5.674 z" style="fill:#ffffff;fill-opacity:1;fill-rule:nonzero;stroke:none" id="path60"/>
        </g>
        <g id="g62" transform="translate(354.7415,370.6826)">
          <path d="m 0,0 c -5.297,0 -9.605,4.308 -9.605,9.603 v 39.318 c 0,5.295 4.308,9.603 9.605,9.603 h 8.236 c 5.294,0 9.602,-4.308 9.602,-9.603 V 9.603 C 17.838,4.308 13.53,0 8.236,0 Z m 2.044,48.666 c -0.987,0 -1.788,-0.803 -1.788,-1.789 V 11.648 c 0,-0.986 0.801,-1.79 1.788,-1.79 h 4.148 c 0.987,0 1.788,0.804 1.788,1.79 v 35.229 c 0,0.986 -0.801,1.789 -1.788,1.789 z" style="fill:#ffffff;fill-opacity:1;fill-rule:nonzero;stroke:none" id="path64"/>
        </g>
        <g id="g66" transform="translate(440.2433,370.6826)">
          <path d="M 0,0 C -0.032,0 -0.06,0.026 -0.06,0.058 V 3.079 L 0.224,3.23 C 0.22,3.23 1.16,3.85 1.16,6.449 v 45.625 c 0,2.604 -0.943,3.222 -0.95,3.229 l -0.252,0.156 -0.018,0.305 v 2.7 c 0,0.032 0.028,0.06 0.06,0.06 h 12.178 c 0.032,0 0.057,-0.028 0.057,-0.06 v -3.019 l -0.281,-0.153 c 0,0 -0.936,-0.621 -0.936,-3.218 V 6.449 c 0,-2.603 0.94,-3.222 0.951,-3.228 L 12.22,3.065 12.235,2.76 V 0.058 C 12.235,0.026 12.21,0 12.178,0 Z" style="fill:#ffffff;fill-opacity:1;fill-rule:nonzero;stroke:none" id="path68"/>
        </g>
        <g id="g70" transform="translate(109.9769,397.9052)">
          <path d="m 0,0 c -0.231,-1.228 -0.859,-2.191 -1.882,-2.89 -1.022,-0.699 -2.143,-0.938 -3.355,-0.71 -1.228,0.231 -2.191,0.86 -2.889,1.887 -0.699,1.028 -0.936,2.153 -0.707,3.37 0.227,1.213 0.855,2.171 1.878,2.87 1.022,0.699 2.147,0.937 3.375,0.706 1.213,-0.227 2.172,-0.85 2.871,-1.868 C -0.009,2.343 0.23,1.223 0,0" style="fill:#ffffff;fill-opacity:1;fill-rule:nonzero;stroke:none" id="path72"/>
        </g>
        <g id="g74" transform="translate(502.9742,397.9052)">
          <path d="m 0,0 c -0.23,-1.228 -0.859,-2.191 -1.882,-2.89 -1.022,-0.699 -2.142,-0.938 -3.355,-0.71 -1.228,0.231 -2.191,0.86 -2.889,1.887 -0.699,1.028 -0.936,2.153 -0.707,3.37 0.227,1.213 0.855,2.171 1.878,2.87 1.022,0.699 2.148,0.937 3.375,0.706 1.213,-0.227 2.172,-0.85 2.872,-1.868 C -0.009,2.343 0.23,1.223 0,0" style="fill:#ffffff;fill-opacity:1;fill-rule:nonzero;stroke:none" id="path76"/>
        </g>
        <g id="g78" transform="translate(456.4575,432.2271)">
          <path d="m 0,0 -80.524,-0.079 c -41.704,-0.094 -34.819,41.498 -10.675,43.533 -8.806,-7.219 -18.468,-18.111 -5.459,-28.403 7.36,-3.836 13.953,-4.573 41.539,-3.818 l 88.644,-0.243 0.435,-72.38 -12.232,0.108 -0.57,20.133 -8.411,0.032 V -61.39 H 0 Z m 21.244,-7.497 0.065,7.518 -8.562,-0.009 v -29.791 l 8.329,-0.003 z" style="fill:#ffffff;fill-opacity:1;fill-rule:evenodd;stroke:none" id="path80"/>
        </g>
        <g id="g82" transform="translate(302.5198,482.7926)">
          <path d="m 0,0 c 9.116,0 16.506,-7.39 16.506,-16.506 0,-9.116 -7.39,-16.506 -16.506,-16.506 -9.116,0 -16.506,7.39 -16.506,16.506 C -16.506,-7.39 -9.116,0 0,0 m 0.001,12.507 c 8.426,0 16.012,-3.593 21.313,-9.331 15.29,-0.877 30.64,-2.14 43.517,12.382 C 71.579,-7.997 48.43,-2 27.898,-8.516 c 0.726,-2.538 1.115,-5.219 1.115,-7.99 0,-16.023 -12.991,-29.013 -29.012,-29.013 -16.024,0 -29.014,12.99 -29.014,29.013 0,2.822 0.404,5.549 1.156,8.128 -20.48,6.412 -43.453,0.533 -36.728,24.01 C -51.76,1.169 -36.483,2.364 -21.254,3.24 c 5.298,5.7 12.859,9.267 21.255,9.267" style="fill:#ffffff;fill-opacity:1;fill-rule:evenodd;stroke:none" id="path84"/>
        </g>
        <g id="g86" transform="translate(318.3275,447.6573)">
          <path d="m 0,0 c 9.652,-1.473 16.507,-3.787 25.168,-14.005 0,0 0.159,16.902 -19.639,23.833 z" style="fill:#ffffff;fill-opacity:1;fill-rule:nonzero;stroke:none" id="path88"/>
        </g>
      </g>
    </g>
  </g>
</svg>